<svg width="60" height="60" viewBox="0 0 60 60" fill="none" xmlns="http://www.w3.org/2000/svg">
<path d="M58 37C58 30.9 55.5768 25.0499 51.2635 20.7365C46.9501 16.4232 41.1 14 35 14C28.9 14 23.0499 16.4232 18.7365 20.7365C14.4232 25.0499 12 30.9 12 37L35 37H58Z" fill="#EC3B22"/>
<path d="M30 7.5C26.717 7.5 23.4661 8.14664 20.4329 9.40301C17.3998 10.6594 14.6438 12.5009 12.3223 14.8223C7.63392 19.5107 5 25.8696 5 32.5V50C5 50.663 5.26339 51.2989 5.73223 51.7678C6.20107 52.2366 6.83696 52.5 7.5 52.5H15C16.9891 52.5 18.8968 51.7098 20.3033 50.3033C21.7098 48.8968 22.5 46.9891 22.5 45V40C22.5 38.0109 21.7098 36.1032 20.3033 34.6967C18.8968 33.2902 16.9891 32.5 15 32.5H10C10 27.1957 12.1071 22.1086 15.8579 18.3579C19.6086 14.6071 24.6957 12.5 30 12.5C35.3043 12.5 40.3914 14.6071 44.1421 18.3579C47.8929 22.1086 50 27.1957 50 32.5H45C43.0109 32.5 41.1032 33.2902 39.6967 34.6967C38.2902 36.1032 37.5 38.0109 37.5 40V45C37.5 46.9891 38.2902 48.8968 39.6967 50.3033C41.1032 51.7098 43.0109 52.5 45 52.5H52.5C53.163 52.5 53.7989 52.2366 54.2678 51.7678C54.7366 51.2989 55 50.663 55 50V32.5C55 25.8696 52.3661 19.5107 47.6777 14.8223C42.9893 10.1339 36.6304 7.5 30 7.5ZM15 37.5C15.663 37.5 16.2989 37.7634 16.7678 38.2322C17.2366 38.7011 17.5 39.337 17.5 40V45C17.5 45.663 17.2366 46.2989 16.7678 46.7678C16.2989 47.2366 15.663 47.5 15 47.5H10V37.5H15ZM50 47.5H45C44.337 47.5 43.7011 47.2366 43.2322 46.7678C42.7634 46.2989 42.5 45.663 42.5 45V40C42.5 39.337 42.7634 38.7011 43.2322 38.2322C43.7011 37.7634 44.337 37.5 45 37.5H50V47.5Z" fill="#2F2F2F"/>
</svg>
