<svg width="60" height="60" viewBox="0 0 60 60" fill="none" xmlns="http://www.w3.org/2000/svg">
<circle cx="38.5" cy="28.5" r="16.5" fill="#FF4F4F"/>
<path fill-rule="evenodd" clip-rule="evenodd" d="M15 10H45C46.3807 10 47.5 11.1193 47.5 12.5V20H12.5V12.5C12.5 11.1193 13.6193 10 15 10ZM47.5 47.5V25H12.5V47.5C12.5 48.8807 13.6193 50 15 50H45C46.3807 50 47.5 48.8807 47.5 47.5ZM7.5 12.5C7.5 8.35786 10.8579 5 15 5H45C49.1421 5 52.5 8.35786 52.5 12.5V47.5C52.5 51.6421 49.1421 55 45 55H15C10.8579 55 7.5 51.6421 7.5 47.5V12.5ZM17.5 12.5C16.1193 12.5 15 13.6193 15 15C15 16.3807 16.1193 17.5 17.5 17.5H22.5C23.8807 17.5 25 16.3807 25 15C25 13.6193 23.8807 12.5 22.5 12.5H17.5ZM35 17.5C36.3807 17.5 37.5 16.3807 37.5 15C37.5 13.6193 36.3807 12.5 35 12.5C33.6193 12.5 32.5 13.6193 32.5 15C32.5 16.3807 33.6193 17.5 35 17.5ZM45 15C45 16.3807 43.8807 17.5 42.5 17.5C41.1193 17.5 40 16.3807 40 15C40 13.6193 41.1193 12.5 42.5 12.5C43.8807 12.5 45 13.6193 45 15ZM35 37.5C35 40.2614 32.7614 42.5 30 42.5C27.2386 42.5 25 40.2614 25 37.5C25 34.7386 27.2386 32.5 30 32.5C32.7614 32.5 35 34.7386 35 37.5ZM40 37.5C40 43.0228 35.5228 47.5 30 47.5C24.4772 47.5 20 43.0228 20 37.5C20 31.9772 24.4772 27.5 30 27.5C35.5228 27.5 40 31.9772 40 37.5Z" fill="#2F2F2F"/>
</svg>
