<svg width="60" height="60" viewBox="0 0 60 60" fill="none" xmlns="http://www.w3.org/2000/svg">
<path d="M15.2544 16.0867C15.2544 12.819 17.9212 10.1699 21.2108 10.1699H50.9929C54.2825 10.1699 56.9493 12.819 56.9493 16.0867V36.7955C56.9493 40.0633 54.2825 42.7123 50.9929 42.7123H21.2108C17.9212 42.7123 15.2544 40.0633 15.2544 36.7955V16.0867Z" fill="#EC3B22"/>
<path d="M45 15.0005H36.025L41.775 9.27546C42.0081 9.04237 42.193 8.76564 42.3191 8.46109C42.4453 8.15653 42.5102 7.83011 42.5102 7.50046C42.5102 7.17082 42.4453 6.8444 42.3191 6.53984C42.193 6.23529 42.0081 5.95856 41.775 5.72546C41.5419 5.49237 41.2652 5.30746 40.9606 5.18131C40.6561 5.05516 40.3296 4.99023 40 4.99023C39.3342 4.99023 38.6958 5.2547 38.225 5.72546L30 13.8505L27.075 8.85046C26.9108 8.56484 26.692 8.31434 26.4311 8.11328C26.1701 7.91221 25.8721 7.76452 25.5541 7.67862C25.236 7.59273 24.9042 7.57032 24.5775 7.61267C24.2508 7.65502 23.9356 7.76131 23.65 7.92546C23.3644 8.08962 23.1139 8.30842 22.9128 8.56938C22.7117 8.83034 22.5641 9.12835 22.4782 9.44639C22.3923 9.76443 22.3699 10.0963 22.4122 10.423C22.4546 10.7497 22.5608 11.0648 22.725 11.3505L25 15.0005H15C13.0109 15.0005 11.1032 15.7906 9.6967 17.1972C8.29018 18.6037 7.5 20.5113 7.5 22.5005V42.5005C7.5 44.4896 8.29018 46.3972 9.6967 47.8038C11.1032 49.2103 13.0109 50.0005 15 50.0005V52.5005C15 53.1635 15.2634 53.7994 15.7322 54.2682C16.2011 54.7371 16.837 55.0005 17.5 55.0005C18.163 55.0005 18.7989 54.7371 19.2678 54.2682C19.7366 53.7994 20 53.1635 20 52.5005V50.0005H40V52.5005C40 53.1635 40.2634 53.7994 40.7322 54.2682C41.2011 54.7371 41.837 55.0005 42.5 55.0005C43.163 55.0005 43.7989 54.7371 44.2678 54.2682C44.7366 53.7994 45 53.1635 45 52.5005V50.0005C46.9891 50.0005 48.8968 49.2103 50.3033 47.8038C51.7098 46.3972 52.5 44.4896 52.5 42.5005V22.5005C52.5 20.5113 51.7098 18.6037 50.3033 17.1972C48.8968 15.7906 46.9891 15.0005 45 15.0005ZM47.5 42.5005C47.5 43.1635 47.2366 43.7994 46.7678 44.2682C46.2989 44.7371 45.663 45.0005 45 45.0005H15C14.337 45.0005 13.7011 44.7371 13.2322 44.2682C12.7634 43.7994 12.5 43.1635 12.5 42.5005V22.5005C12.5 21.8374 12.7634 21.2015 13.2322 20.7327C13.7011 20.2639 14.337 20.0005 15 20.0005H45C45.663 20.0005 46.2989 20.2639 46.7678 20.7327C47.2366 21.2015 47.5 21.8374 47.5 22.5005V42.5005Z" fill="#2F2F2F"/>
</svg>
