<svg width="52" height="52" viewBox="0 0 52 52" fill="none" xmlns="http://www.w3.org/2000/svg">
<rect x="17" y="1" width="29" height="35" rx="5" fill="#EC3B22"/>
<path d="M36.8332 4.33398H15.1665C13.4426 4.33398 11.7893 5.0188 10.5703 6.23779C9.35132 7.45678 8.6665 9.11008 8.6665 10.834V41.1673C8.6665 42.8912 9.35132 44.5445 10.5703 45.7635C11.7893 46.9825 13.4426 47.6673 15.1665 47.6673H36.8332C38.5571 47.6673 40.2104 46.9825 41.4294 45.7635C42.6483 44.5445 43.3332 42.8912 43.3332 41.1673V10.834C43.3332 9.11008 42.6483 7.45678 41.4294 6.23779C40.2104 5.0188 38.5571 4.33398 36.8332 4.33398ZM38.9998 41.1673C38.9998 41.742 38.7716 42.2931 38.3652 42.6994C37.9589 43.1057 37.4078 43.334 36.8332 43.334H15.1665C14.5919 43.334 14.0408 43.1057 13.6344 42.6994C13.2281 42.2931 12.9998 41.742 12.9998 41.1673V10.834C12.9998 10.2593 13.2281 9.70825 13.6344 9.30192C14.0408 8.89559 14.5919 8.66732 15.1665 8.66732H36.8332C37.4078 8.66732 37.9589 8.89559 38.3652 9.30192C38.7716 9.70825 38.9998 10.2593 38.9998 10.834V41.1673ZM27.5382 35.2957C27.288 35.0348 26.9766 34.8406 26.6322 34.7309C26.2878 34.6211 25.9215 34.5993 25.5665 34.6673L25.1765 34.7973C25.0384 34.8447 24.9073 34.9103 24.7865 34.9923L24.4615 35.2523C24.2642 35.4584 24.1096 35.7014 24.0065 35.9673C23.8406 36.3619 23.7952 36.7968 23.8762 37.2171C23.9572 37.6374 24.1609 38.0243 24.4615 38.329C24.677 38.5197 24.9176 38.68 25.1765 38.8057C25.5731 38.9689 26.0093 39.0107 26.4297 38.9258C26.8501 38.841 27.2359 38.6333 27.5382 38.329C27.9332 37.9308 28.1585 37.3949 28.1665 36.834C28.1738 36.5498 28.1145 36.2678 27.9932 36.0107C27.8834 35.7481 27.7296 35.5063 27.5382 35.2957Z" fill="#2F2F2F"/>
</svg>
